<?xml version="1.0" encoding="utf-8"?>
<!-- Generator: Adobe Illustrator 27.9.0, SVG Export Plug-In . SVG Version: 6.00 Build 0)  -->
<svg version="1.1" id="Layer_1" xmlns="http://www.w3.org/2000/svg" xmlns:xlink="http://www.w3.org/1999/xlink" x="0px" y="0px"
	 viewBox="0 0 454.8 456.4" style="enable-background:new 0 0 454.8 456.4;" xml:space="preserve">
<style type="text/css">
	.st0{fill:#FDD32B;}
	.st1{fill:#5FB352;}
	.st2{fill:#7FC9C9;}
</style>
<g>
	<polygon class="st0" points="396.5,219.4 265.3,67.2 134,219.4 211.9,219.4 211.9,368.2 318.7,368.2 318.7,219.4 	"/>
	<path class="st1" d="M390.8,409.3H4.1c-0.7-1.3-0.5-2.4-0.2-3.4c1.9-6.5,4.3-12.9,9-18c4.9-5.4,11-8.6,18.4-8.7c2,0,4,0,5.9,0
		c2.4-8.3,6.7-15.1,12.7-20.7c4.9-4.6,10.6-7.8,17.2-9.6c5.3-1.5,10.7-1.4,15.9-0.8c3.7,0.4,7.5,0.9,11,2.5c1.2,0.6,2.3,0.6,3.4,0.4
		c4.5-7.1,9.9-13,16.1-18.4c4.7-4,9.6-7.5,15-10.4c4.2-2.2,8.7-3.9,13.2-5.5c4.8-1.7,9.8-1.8,14.7-2.8c2.8-0.6,5.8-0.5,8.7-0.1
		c6.5,0.9,13,1.5,19.3,3.5c4.3,1.4,8.6,2.8,12.7,4.9c1,0.5,2.1,0.8,3.4,1.2c1.9-1.6,3.9-3.3,5.9-5.1c5.9-5.2,12.4-9.4,19.6-12.4
		c7.3-3.1,14.9-5.2,23-4.9c5.2,0.2,10.3,1.4,15.2,3.3c5.2,2,9.9,5,14.3,8.4c0.7,0.5,1.5,1.1,2.4,1c2.7-0.5,5.3,1,7.9,0.3
		c4.2,1.5,8.7,1,13,2.4c5,1.7,9.7,3.7,14.1,6.5c6.3,4.1,10.6,9.7,13.3,16.6c2.4,5.9,2.5,12.2,2.8,18.4c0.1,1.6-0.3,3.3,0.3,4.9
		c1.3,0.8,2.5,0.4,3.7,0.5c5,0.1,10-0.3,15,0.7c14.3,2.8,26,9.7,33.5,22.4c2.6,4.4,4.5,9.2,5.2,14.3c0.1,0.9,0.4,1.7,0.7,2.6
		C391.2,405,391.2,407,390.8,409.3"/>
	<g>
		<path class="st2" d="M67.9,68.6l18.7,5.7c-1.3,5.3-3.2,9.6-5.9,13.2c-2.7,3.5-6.1,6.2-10.1,8c-4,1.8-9.1,2.7-15.3,2.7
			c-7.5,0-13.7-1.1-18.4-3.3c-4.8-2.2-8.9-6-12.3-11.5c-3.5-5.5-5.2-12.5-5.2-21.1c0-11.4,3-20.2,9.1-26.4
			c6.1-6.1,14.7-9.2,25.8-9.2c8.7,0,15.6,1.8,20.5,5.3c5,3.5,8.7,8.9,11.1,16.2l-18.9,4.2c-0.7-2.1-1.4-3.6-2.1-4.6
			c-1.2-1.6-2.7-2.9-4.4-3.8c-1.7-0.9-3.7-1.3-5.8-1.3c-4.8,0-8.6,1.9-11.1,5.8c-1.9,2.9-2.9,7.4-2.9,13.6c0,7.7,1.2,12.9,3.5,15.8
			c2.3,2.8,5.6,4.3,9.8,4.3c4.1,0,7.2-1.1,9.3-3.4C65.5,76.3,67,73,67.9,68.6z"/>
		<path class="st2" d="M94.3,62.4c0-11.3,3.1-20.1,9.4-26.4c6.3-6.3,15-9.4,26.3-9.4c11.5,0,20.4,3.1,26.6,9.3s9.3,14.8,9.3,26
			c0,8.1-1.4,14.7-4.1,19.9c-2.7,5.2-6.6,9.2-11.8,12.1c-5.1,2.9-11.5,4.3-19.2,4.3c-7.8,0-14.3-1.2-19.4-3.7
			c-5.1-2.5-9.3-6.4-12.4-11.8C95.9,77.2,94.3,70.5,94.3,62.4z M115.7,62.5c0,7,1.3,12,3.9,15c2.6,3.1,6.1,4.6,10.6,4.6
			c4.6,0,8.1-1.5,10.7-4.5c2.5-3,3.8-8.3,3.8-16.1c0-6.5-1.3-11.3-3.9-14.3c-2.6-3-6.2-4.5-10.7-4.5c-4.3,0-7.8,1.5-10.4,4.6
			C117,50.4,115.7,55.4,115.7,62.5z"/>
	</g>
	<g>
		<path class="st2" d="M200.9,120.9h-33.5c0.4-3.3,1.5-6.4,3.5-9.3c1.9-2.9,5.6-6.3,10.9-10.3c3.3-2.4,5.4-4.3,6.3-5.5
			s1.4-2.5,1.4-3.6c0-1.2-0.5-2.3-1.4-3.1c-0.9-0.9-2-1.3-3.4-1.3c-1.4,0-2.6,0.4-3.5,1.3c-0.9,0.9-1.5,2.5-1.8,4.7l-11.2-0.9
			c0.4-3.1,1.2-5.6,2.4-7.4c1.2-1.8,2.8-3.1,4.9-4.1c2.1-0.9,5.1-1.4,8.8-1.4c3.9,0,7,0.4,9.2,1.3c2.2,0.9,3.9,2.3,5.1,4.1
			c1.3,1.9,1.9,3.9,1.9,6.2c0,2.4-0.7,4.8-2.1,7c-1.4,2.2-4,4.7-7.8,7.3c-2.2,1.6-3.7,2.6-4.5,3.3s-1.6,1.4-2.7,2.4h17.4V120.9z"/>
	</g>
</g>
</svg>
