<?xml version="1.0" encoding="utf-8"?>
<!-- Generator: Adobe Illustrator 27.6.1, SVG Export Plug-In . SVG Version: 6.00 Build 0)  -->
<svg version="1.1" id="Layer_1" xmlns="http://www.w3.org/2000/svg" xmlns:xlink="http://www.w3.org/1999/xlink" x="0px" y="0px"
	 viewBox="0 0 454.8003235 456.417572" style="enable-background:new 0 0 454.8003235 456.417572;" xml:space="preserve">
<style type="text/css">
	.st0{fill:#7FC9C9;}
	.st1{fill:#FDD32B;}
	.st2{fill:#5FB352;}
</style>
<g>
	<path class="st0" d="M401.3904419,163.8583221c-7.4300842-5.4695282-10.8212585-12.6523132-15.6255188-18.4633331
		c-35.2427979-42.5962982-78.3866577-73.1702805-133.7236176-81.5541534
		c-76.2965851-11.5631027-138.892868,14.2772903-183.7558899,77.273941
		C42.0976448,177.8765411,34.0847092,220.4846497,38.2472,265.5419617
		c2.9143257,31.5630798,11.3923912,61.1773987,28.8607101,87.6242065
		c25.6107712,38.7635193,61.0478516,65.5223999,104.2093964,82.2901001c1.8133545,0.7064819,3.59729,1.513092,5.3399811,2.3785706
		c0.2943878,0.1412659,0.3179321,0.8183594,0.9066925,2.5257568c-33.676712-2.4609985-62.8671112-15.1780701-89.8320389-33.4117737
		c-43.8385963-29.6437378-71.4629211-70.7858582-82.3901596-122.401886
		C-21.3817577,158.318161,55.8273849,58.86586,155.067688,33.3552094
		C280.984436,0.9914101,376.6274719,89.4516296,401.3904419,163.8583221"/>
	<path class="st1" d="M307.8086243,166.7785492c-14.2772522-5.1103821-28.5839844-10.1030121-43.7208252-11.7633057
		c-38.8224182-4.2566833-72.8170776,5.0691681-97.0207214,37.6920166
		c-20.6358032,27.8127289-23.2086639,58.7399597-10.8978271,90.6327362
		c11.6043396,30.0853271,33.6178284,51.1509094,62.9083252,63.2026978
		c67.2121277,27.6478882,128.948822,14.3832703,185.8930969-28.0423279
		c18.1159058-13.506012,33.4823914-29.9852295,49.3964233-47.8480225c0.2825928,5.7226868-2.5022278,8.9784851-4.3803406,12.1165771
		c-27.2062683,45.6283875-63.6266174,80.6356812-115.04245,97.668335
		c-26.8942871,8.9078369-54.5421448,11.4041443-82.7375641,7.7008972
		c-33.706131-4.4274292-63.7384644-16.9266663-88.9076843-40.105896
		c-21.1892395-19.5112915-36.8677444-42.6669922-42.0546722-71.3451843
		c-12.2225266-67.5830231,26.5822296-125.8107605,91.9868774-136.6673889
		C247.9971619,134.2499084,280.1666565,143.97612,307.8086243,166.7785492"/>
	<path class="st2" d="M373.8409119,188.6501617c-10.1913147-8.7665253-19.2286987-18.2395782-29.2492676-26.7823944
		c-14.8778076-12.6876373-31.4159241-22.566925-49.4553223-29.7320557
		c-23.1321411-9.1963348-47.3416748-16.4026947-72.2047424-14.4303589
		c-56.1788788,4.4627533-101.8308411,27.2475128-124.1328201,82.5903625
		c-16.6676254,41.3599243-11.5101471,81.7543335,9.0314865,121.1007385
		c16.5616379,31.7279358,41.9663544,54.2771912,71.021347,73.6059875c1.5837555,1.0538635,3.7326965,1.4718628,3.7385712,4.3508606
		c-6.305542,1.0892029-11.4159241-2.5963745-16.5086365-4.8218689
		c-46.3349228-20.2590332-80.5709381-53.0349426-97.8920746-100.9418335
		c-25.9110565-71.6454163,4.0800629-156.5201569,79.5759583-189.4314575
		c58.628067-25.5578156,114.1298828-17.9511185,166.9881897,16.1023941
		c25.3222961,16.3143692,43.6266479,39.0108414,58.0098877,65.1279221
		C373.3051453,186.3716888,373.4876404,187.5550842,373.8409119,188.6501617"/>
</g>
</svg>
