<?xml version="1.0" encoding="utf-8"?>
<!-- Generator: Adobe Illustrator 27.6.1, SVG Export Plug-In . SVG Version: 6.00 Build 0)  -->
<svg version="1.1" id="Layer_1" xmlns="http://www.w3.org/2000/svg" xmlns:xlink="http://www.w3.org/1999/xlink" x="0px" y="0px"
	 viewBox="0 0 454.8003235 456.417572" style="enable-background:new 0 0 454.8003235 456.417572;" xml:space="preserve">
<style type="text/css">
	.st0{fill:#5FB352;}
	.st1{fill:#7FC9C9;}
	.st2{fill:#FDD32B;}
</style>
<g>
	<path class="st0" d="M347.3330383,361.3043213c-1.4866028,1.4170837-3.1069031,1.6737671-4.8822632,1.668396
		c-14.4328003-0.0160217-28.8710022,0.0107117-43.303833,0.0213928c-8.9409485,0.0053711-17.8872986,0.0321045-26.8282776-0.0106812
		c-1.9518127-0.0053406-3.8127441,0.4705811-5.7110901,0.7593384c-1.7325745,0.2566833-3.5614319,2.7806702-3.7592773,5.0319824
		c-0.1176453,1.3796387-0.0909119,2.7753296-0.0909119,4.1656799c-0.0053406,11.4382324-0.0053406,22.8818359-0.0053406,34.3254395
		c0,0.636322-0.0374451,1.2833862,0.0107117,1.9197388c0.46521,5.9196472-2.3315125,9.6040649-9.7431183,9.5719604
		c-6.203064-0.0267334-12.4061432,0.0053406-18.6038361,0.0053406c-9.7324219-0.0053406-19.4594574-0.0160217-29.1865234-0.0213623
		c-0.7486572-0.0053711-1.5080109,0.0588074-2.2459412-0.0267639c-5.3260803-0.6470337-7.9142609-2.903656-7.855423-8.0746765
		c0.1390076-12.8339233,0.0480957-25.6625366,0.0373993-38.49646c0-1.0641479,0.0962677-2.1817627-0.1710968-3.1871033
		c-0.8609619-3.235199-2.684433-5.5506592-6.3153687-5.8126831c-1.2780609-0.0909119-2.5614624-0.1390381-3.8394928-0.1390381
		c-22.5609894-0.0160522-45.1273346-0.0213928-67.6883087-0.0321045c-0.5347595,0-1.0694962-0.0427551-1.6042557-0.0053406
		c-6.2672272,0.4224548-6.1175003-3.5507202-4.1442795-7.1014404c4.3260956-7.7859192,8.8874893-15.4541931,13.3419342-23.1759338
		c4.9303741-8.5506287,9.8500366-17.1119385,14.7750702-25.6732483c1.6951599-2.9411011,3.3956451-5.8822021,5.0908051-8.8233032
		c0.2085571-0.3636475,0.4224396-0.7272644,0.5989075-1.1123047c1.8127899-3.9303894,1.2406006-4.8287659-3.069458-5.572052
		c-3.3100891-0.5668335-6.6148224-0.2780762-9.9195557-0.3101501c-2.2566223-0.0160522-4.4811707-0.2138977-6.6843491-0.6416931
		c-2.401001-0.4652405-3.1977844-1.9304504-2.2352371-4.1870728c2.0159912-4.6950989,4.8073883-8.973053,7.3099976-13.4007568
		c4.1282501-7.2993164,8.4008789-14.5130615,12.6039886-21.7695923c4.3100586-7.4436646,8.6468658-14.8766479,12.9141541-22.3417358
		c2.7272186-4.7752991,5.0747528-9.7377625,7.0800629-14.5825653c-0.3903809-1.0106659-0.9518585-1.3208313-1.6149445-1.3635864
		c-2.9838867-0.197876-5.7645721-1.6096039-8.8179779-1.4384766c-0.614975,0.0320892-1.2566681-0.2246094-1.866272-0.4224396
		c-3.0373688-0.9678955-3.9303894-2.7860565-2.5400543-5.5934753c2.2085114-4.4704895,4.7432098-8.7645264,7.2725677-13.0585327
		c3.6576843-6.219101,7.2030487-12.5023956,10.8125916-18.7429047c4.2031097-7.2672119,8.4383087-14.5237122,12.6360931-21.7962799
		c0.9464874-1.6416626,1.8448639-3.3207855,2.6897736-5.0159454c0.6309967-1.2566681,1.0160217-2.5881805,0.4545288-4.2993774
		c-2.5240173-1.7860565-5.6469421-0.6256409-8.5078278-1.1122742c-2.9197388-0.4919434-5.7859802-1.3261719-8.75383-1.1657257
		c-0.6470337-2.0480957,0.2780914-3.4651642,0.7219238-4.9303894c1.5988922-5.2565765,4.8341217-9.6735764,7.5827179-14.3312302
		c6.219101-10.5238037,12.5077362-21.0048981,18.7963562-31.4912796
		c5.1389465-8.5773239,10.3152924-17.1279297,15.4809418-25.6892662
		c3.6202545-5.9998322,17.6734009-29.3255081,18.4006653-30.0902252c2.3582306-2.486557,4.406311-2.5881805,6.1816711,0.3850098
		c1.935791,3.2459335,29.223938,48.2181969,33.3200989,55.0361977c4.7539062,7.9142761,9.4596863,15.8499298,14.1975708,23.769516
		c3.5400085,5.9196625,7.0746765,11.8446808,10.6628418,17.737587c1.5614624,2.566803,2.6095581,5.2940216,3.0855103,8.1281738
		c-0.3743286,0.9304504-1.1122742,1.2459717-1.8234863,1.3689423c-3.3261414,0.5882263-6.572052,1.834198-10.0479126,1.3582458
		c-0.4171143-0.0534515-0.8555908,0-1.2833862,0.0053864c-5.5934753,0.085556-6.5453186,1.6576996-3.7325439,6.5720215
		c5.2726135,9.2136993,10.6735535,18.3578644,15.9836121,27.5501862
		c4.1977234,7.2565308,8.3527222,14.5397949,12.4970398,21.8283844c1.5721436,2.7592926,3.1175537,5.5453339,4.5613708,8.3741608
		c1.3636169,2.6737366,0.368988,4.438385-2.6042175,5.0640564c-2.5346985,0.534729-5.0907898,0.5721588-7.6575928,0.5721588
		c-0.9571838,0-1.9250793,0.0214081-2.8822632,0.1176453c-2.6951294,0.2780762-3.3902893,1.6630707-2.1336365,4.1710205
		c2.3314819,4.6576691,5.0747375,9.0853729,7.6789551,13.593277c3.7164917,6.4276733,7.304657,12.9355469,11.0104675,19.3685608
		c3.3956299,5.8875732,6.8982239,11.7056274,10.309906,17.582489c3.3528748,5.7859802,6.6896973,11.5826416,9.9516602,17.416748
		c0.7219238,1.2887268,1.0855408,2.7699585,1.6256104,4.1763611c-0.4064026,1.8181458-1.5026245,2.4812317-3.3528442,2.7753296
		c-3.5186462,0.5508118-7.0372925,0.4759521-10.5505676,0.4171143c-2.3742676-0.0427856-4.6790466,0.4224548-7.0158691,0.6149597
		c-1.2513428,0.101593-2.23526,0.6737671-2.7539673,2.101532c1.9090576,5.0694275,4.93573,9.6949768,7.6362,14.4756165
		c4.8608398,8.5987549,9.8660889,17.1119385,14.8178406,25.6518555c3.5133057,6.0640259,7.0533142,12.1066589,10.5505676,18.1760559
		c0.9464722,1.6523743,1.7967529,3.3582153,2.6897888,5.0426636
		C347.5576172,358.4434204,347.7233887,359.7856445,347.3330383,361.3043213"/>
	<path class="st1" d="M87.7431412,125.8983765c16.261673,26.9726562,32.0420685,53.1378479,47.8010635,79.3083954
		c0.2192535,0.3636017,0.1978607,0.8288422-0.2406311,1.5453949c-2.1603851,0.2887726-4.5614014,0.6042633-6.9570618,0.9304657
		c-2.2726822,0.3101654-4.6629944-0.3689575-6.8928909,0.7058716c-0.4278107,1.7325897,0.5133514,3.101532,1.1710815,4.288681
		c4.0106049,7.2351074,7.5827255,14.7376099,12.400795,21.502182c3.1871033,4.4704895,2.9785461,8.8928375,0.0802155,13.34729
		c-6.6148224,10.1548615-12.2938385,20.8551483-18.2348785,31.4003754
		c-1.3261795,2.3528748-2.3154602,4.9624634-2.7432556,7.7591858c-0.8609543,5.641571,0.919754,8.5880432,5.0800934,10.9729919
		c2.1443405,1.2299194,4.620224,2.1229553,7.219101,2.3742981c1.7753601,0.1657715,3.550705,0.4652405,5.384903,1.23526
		c-0.4545441,2.2459412-1.6684113,4.0373535-2.684433,5.8341064c-5.5292892,9.7965698-11.1869202,19.5129089-16.8124619,29.256012
		c-2.9197235,5.0533447-5.9410477,10.0532532-8.7591553,15.1654358c-1.3689575,2.4919434-2.5400543,5.0426941-2.684433,8.0746765
		c-0.1978607,4.2138367,1.8234863,7.0479736,4.8287659,9.4810791c0.7432938,0.6042786,1.5454178,1.1497192,2.3903198,1.5935364
		c3.3154297,1.732605,4.4972229,4.5186157,4.4491043,8.1549072c-0.0909195,7.374176-0.0106964,14.7536926,0,22.1278381
		c0,1.1818237-0.069519,2.3315125-0.5026703,3.4651794c-0.9571915,2.5346985-2.1924667,3.5507202-4.9998856,3.5935059
		c-5.0266266,0.069519-10.0532455,0.0213928-15.0745316,0.0213928c-7.379509,0.0106812-14.7590256-0.1283569-22.133194,0.0748596
		c-5.871521,0.1604309-7.2672081-2.4705505-7.0319214-7.1495667c0.3368874-6.5185852-0.5347443-12.9943848-0.1069489-19.4541321
		c0.2566757-3.8662109-0.2727242-7.6308289-0.2994614-11.3580322c-0.7005157-1.1069031-1.7165413-1.3689575-2.8127708-1.4331055
		c-3.1977882-0.1871643-6.3902283-0.5026855-9.5880165-0.5187073c-13.3633385-0.0588379-26.7320232-0.0427856-40.095356-0.0107117
		c-3.09619,0.0053711-6.12286-0.46521-9.716362-0.866272c4.5988255-8.7431335,9.5452394-16.8766174,14.2456675-25.1384888
		c4.7111263-8.2939148,9.4703808-16.5611267,14.46492-25.288208c-6.4597492-0.165741-12.4275303-1.6042175-18.609211-1.3849792
		c-0.1657724-2.8929749,1.7058449-4.6255798,2.7860327-6.6094666c4.326107-7.9196167,8.82868-15.7322693,13.309864-23.5663147
		c4.898283-8.5559692,9.8393517-17.0905457,14.9247932-25.91922c-4.5079155-1.0908813-8.8286781-1.7860413-13.8285618-1.6523743
		c2.6416492-6.3207092,6.2832813-11.4008026,9.181612-16.8605652c2.9304161-5.5239563,6.0159073-10.9730377,9.2029991-16.3579102
		c3.1817474-5.3849335,6.1923752-10.8553925,9.3527336-16.5825348c-5.406292-0.1283417-10.5826492-0.1550751-16.1172829-1.3796387
		c3.7378807-7.1602783,8.0479431-13.6681519,11.9997292-20.3792267c3.9357376-6.6843414,7.9463425-13.3259125,11.9569473-19.9674683
		c4.0533905-6.7217865,8.1121216-13.4382172,12.2296753-20.1225586
		C79.294136,139.5879211,82.9304199,132.823349,87.7431412,125.8983765"/>
	<path class="st2" d="M444.6115723,315.54599c-6.2191162-0.3743286-12.2350159,1.1229553-18.7214966,1.3315125
		c9.6040649,16.8605957,19.047699,33.4377441,28.7319946,50.4373779c-4.2726746,0.4598694-8.1388855,1.1817932-12.0211487,1.2406006
		c-11.1174011,0.1604309-22.2401428,0.0748901-33.3575134,0.0427856c-2.7753601-0.0106812-5.5185852-0.5454407-8.3099976-0.4812622
		c-1.6149292,0.0374146-3.1977844,0.1817932-4.7592468,0.5454407c-3.0266724,0.7058716-4.3795776,2.2566223-4.3902588,5.368866
		c-0.0374451,9.0853577-0.0053406,18.1760559,0.0106812,27.2667542c0.0053406,1.6203003-0.0481262,3.2031555-1.1176147,4.5667419
		c-1.1176147,1.4277954-2.4437866,2.2406006-4.3582153,2.2084961c-4.5988159-0.0855408-9.1976624-0.0374146-13.7964783-0.032074
		c-8.0158386,0-16.0370483,0.0427856-24.0582581,0c-4.0266724-0.0213928-6.0426636-1.8020935-6.0854492-5.7966614
		c-0.1122742-9.2992554-0.0053406-18.6038513,0.0214233-27.9031067c0-0.2032166,0.1229553-0.401062,0.2245789-0.7272644
		c2.3314819-1.7646484,5.5079041-1.9518127,7.9356689-3.7111511c2.0641174-1.4919434,4.1335754-2.8448486,5.3260803-5.3207397
		c1.3047791-2.7058105,1.1871033-5.2084351,0.3635864-7.9784241c-1.598877-5.3902588-4.9196472-9.8553772-7.5185242-14.7055359
		c-2.7539368-5.1335754-5.9196777-10.0265198-8.539917-15.2456665c-1.9946289-3.9785156-4.6308899-7.6254883-6.8982544-11.4703369
		c-2.2619629-3.8448181-4.4277039-7.7431335-6.6255188-11.6200256c-0.3636169-0.6470642-0.7593079-1.2994385-0.5775146-2.336853
		c1.9090576-1.0106812,4.1229248-1.0053406,6.3100281-1.2245789c4.1121826-0.4064026,7.5399475-2.0908813,9.8019104-5.6790161
		c2.3529053-3.7272034,2.2833862-7.737793,0.5989075-11.5826416c-2.6844177-6.1335449-6.3527832-11.7590942-9.6842651-17.5503845
		c-4.3902588-7.6308594-8.8500671-15.2296295-13.2189331-22.8818512c-1.5187073-2.6630402-1.6630859-5.4009399-0.0374756-8.1655731
		c3.8127747-6.5025482,7.5720215-13.0371704,11.3420105-19.5664368c1.0480957-1.8074341,2.0534363-3.6362762,3.2191772-5.7057343
		c-5.2244873-2.0427399-10.7323608-0.2353058-15.9194336-2.5935364
		c16.0424194-26.6357574,32.058136-53.2394257,47.9561768-79.6345825c0.5721436,0,0.6737671-0.0106888,0.7753601,0.0053406
		c0.101593,0.0214233,0.2138977,0.0534897,0.2887573,0.1176682c1.0748596,0.9304352,1.636322,2.2192001,2.3422241,3.3956528
		c15.0103455,24.9245453,29.9993286,49.8598328,44.972229,74.8004608c0.2085571,0.3422241,0.1925049,0.8128052,0.331543,1.438446
		c-4.9464111,1.7593384-10.2564392,0.8663025-15.614624,1.9571838c2.5614319,4.4972229,4.8448181,8.5131683,7.138855,12.529129
		c2.2673645,3.9571381,4.5400391,7.9142761,6.8180542,11.8660431c2.3315125,4.0533905,4.8127136,8.0212097,6.9570618,12.1655121
		c2.0587769,3.9731598,5.0105591,7.52388,6.4116211,12.3954163c-4.7111206,0.5294189-9.010498,0.9732666-13.4809875,2.0213623
		c10.5184631,18.4167175,21.053009,36.8547974,31.5875244,55.2982178
		C444.8628845,314.9363708,444.7345886,315.2411804,444.6115723,315.54599"/>
</g>
</svg>
