<?xml version="1.0" encoding="utf-8"?>
<!-- Generator: Adobe Illustrator 26.5.0, SVG Export Plug-In . SVG Version: 6.00 Build 0)  -->
<svg version="1.1" id="Layer_1" xmlns="http://www.w3.org/2000/svg" xmlns:xlink="http://www.w3.org/1999/xlink" x="0px" y="0px"
	 viewBox="0 0 199.9173584 72" style="enable-background:new 0 0 199.9173584 72;" xml:space="preserve">
<style type="text/css">
	.st0{fill:#00C896;}
	.st1{fill:#FFFFFF;}
	.st2{fill:#003C3C;}
</style>
<g>
	<g>
		<path class="st0" d="M68.0060577,35.8197746c0,18.7158585-15.1723099,33.8881721-33.8881683,33.8881721
			c-18.7160587,0-33.8881683-15.1723137-33.8881683-33.8881721S15.4018307,1.9316107,34.1178894,1.9316107
			C52.8337479,1.9316107,68.0060577,17.10392,68.0060577,35.8197746"/>
		<path class="st1" d="M51.0336342,22.4747353v-4.1985855H46.627533c-3.5268974-2.5192709-7.8449974-4.0021725-12.5095444-4.0021725
			c-4.6647434,0-8.9830399,1.4829016-12.5097427,4.0021725h-4.4060993v4.1987839
			c-2.8992109,3.6696014-4.6300573,8.3050137-4.6300573,13.344944c0,7.3514862,3.6826811,13.8418159,9.3029299,17.7300262
			c0.0009899-0.0013847,0.0021801-0.0025749,0.0029736-0.0037651c0.3525887,0.243782,0.7208366,0.4699249,1.1059341,0.6740646
			l11.1338634,5.8973274l11.1338654-5.8973274c0.4072914-0.2158356,0.7959557-0.4560471,1.1667786-0.7162819
			c0.0011902,0.0011902,0.0023804,0.002182,0.0037651,0.0033722c5.5855637-3.8931656,9.2414894-10.3628845,9.2414894-17.6874161
			C55.6636887,30.7799473,53.9328423,26.1445351,51.0336342,22.4747353"/>
		<path class="st2" d="M50.1395683,44.6725235v-25.444418H18.097002v25.444418c0,3.6951675,2.0416183,7.0861053,5.3053131,8.8171501
			l10.71488,5.6743546l10.7150764-5.6743546C48.09795,51.7586288,50.1395683,48.367691,50.1395683,44.6725235
			 M39.8896561,52.9327431c0-0.563076,0.4588242-1.019722,1.0219002-1.019722c0.5652542,0,1.0219002,0.456646,1.0219002,1.019722
			c0,0.5652542-0.456646,1.0219002-1.0219002,1.0219002C40.3484802,53.9546432,39.8896561,53.4979973,39.8896561,52.9327431
			 M33.0431709,56.2757149c0-0.5650558,0.4568405-1.021698,1.0199165-1.021698c0.5652542,0,1.0219002,0.4566422,1.0219002,1.021698
			c0,0.5650597-0.456646,1.0219002-1.0219002,1.0219002C33.5000114,57.2976151,33.0431709,56.8407745,33.0431709,56.2757149
			 M29.8254547,51.6523972l4.2939186-2.3169136l4.2919388,2.3169136l-4.294117,2.2731094L29.8254547,51.6523972z
			 M26.226017,52.9182739c0-0.5652542,0.4566441-1.0219002,1.0218964-1.0219002c0.563076,0,1.0219002,0.456646,1.0219002,1.0219002
			c0,0.563076-0.4588242,1.0217018-1.0219002,1.0217018C26.6826611,53.9399757,26.226017,53.4813499,26.226017,52.9182739
			 M22.7246838,43.1729698l7.4093647,4.0081215l-4.3355408,2.3379211l-0.2293129-0.1210976
			c-0.8571987-0.454464-1.5766506-1.1344757-2.077095-1.9665031c-0.5028248-0.8342056-0.767416-1.7871323-0.767416-2.7588882
			V43.1729698z M19.3775482,42.4346886c0-0.5650558,0.4566441-1.0218964,1.0217018-1.0218964
			c0.5630741,0,1.0220966,0.4568405,1.0220966,1.0218964c0,0.563076-0.4590225,1.019722-1.0220966,1.019722
			C19.8341923,43.4544106,19.3775482,42.9977646,19.3775482,42.4346886 M19.3775482,35.5360794
			c0-0.5650558,0.4566441-1.0217018,1.0217018-1.0217018c0.5630741,0,1.0220966,0.456646,1.0220966,1.0217018
			c0,0.5652542-0.4590225,1.0220947-1.0220966,1.0220947C19.8341923,36.5581741,19.3775482,36.1013336,19.3775482,35.5360794
			 M19.3775482,28.6396446c0-0.5650558,0.4566441-1.0218964,1.0217018-1.0218964
			c0.5630741,0,1.0220966,0.4568405,1.0220966,1.0218964c0,0.563076-0.4590225,1.0197201-1.0220966,1.0197201
			C19.8341923,29.6593647,19.3775482,29.2027206,19.3775482,28.6396446 M21.4524632,21.5699902
			c0,0.5652561-0.4566441,1.0219002-1.0218983,1.0219002c-0.563076,0-1.0217018-0.4566441-1.0217018-1.0219002
			c0-0.563076,0.4586258-1.0218983,1.0217018-1.0218983C20.9958191,20.5480919,21.4524632,21.0069141,21.4524632,21.5699902
			 M22.5702896,48.5910568c0,0.5650597-0.4566441,1.0217018-1.0219002,1.0217018
			c-0.5650558,0-1.0218983-0.4566422-1.0218983-1.0217018c0-0.5632706,0.4568424-1.0199165,1.0218983-1.0199165
			C22.1136456,47.5711403,22.5702896,48.0277863,22.5702896,48.5910568 M30.5512505,21.5699902
			c0,0.5652561-0.4566441,1.0219002-1.0219002,1.0219002c-0.5630741,0-1.0197182-0.4566441-1.0197182-1.0219002
			c0-0.563076,0.4566441-1.0218983,1.0197182-1.0218983C30.0946064,20.5480919,30.5512505,21.0069141,30.5512505,21.5699902
			 M39.6520195,21.5699902c0,0.5652561-0.4588242,1.0219002-1.0219002,1.0219002
			c-0.5650558,0-1.0217018-0.4566441-1.0217018-1.0219002c0-0.563076,0.456646-1.0218983,1.0217018-1.0218983
			C39.1931953,20.5480919,39.6520195,21.0069141,39.6520195,21.5699902 M45.509903,38.8810349l-11.3905296,6.1460609
			l-11.3946896-6.1625099V23.8577671H45.509903V38.8810349z M45.509903,44.6725235
			c0,0.971756-0.2647896,1.9246826-0.7652321,2.7588882c-0.5004463,0.8320274-1.2200966,1.5120392-2.079277,1.9665031
			l-0.2273293,0.1210976l-4.3313789-2.3379211l7.4032173-3.9892921V44.6725235z M46.690361,47.5919533
			c0.5652542,0,1.0219002,0.4568405,1.0219002,1.0218964c0,0.563076-0.456646,1.0219002-1.0219002,1.0219002
			c-0.563076,0-1.0199165-0.4588242-1.0199165-1.0219002C45.6704445,48.0487938,46.127285,47.5919533,46.690361,47.5919533
			 M48.7508087,21.5699902c0,0.5652561-0.4568443,1.0219002-1.0219002,1.0219002s-1.0219002-0.4566441-1.0219002-1.0219002
			c0-0.563076,0.4568443-1.0218983,1.0219002-1.0218983S48.7508087,21.0069141,48.7508087,21.5699902 M48.7508087,28.6606541
			c0,0.5628777-0.4568443,1.0217018-1.0219002,1.0217018s-1.0219002-0.4588242-1.0219002-1.0217018
			c0-0.5652523,0.4568443-1.0220966,1.0219002-1.0220966S48.7508087,28.0954018,48.7508087,28.6606541 M48.7508087,35.5570869
			c0,0.5650597-0.4568443,1.0217018-1.0219002,1.0217018s-1.0219002-0.4566422-1.0219002-1.0217018
			c0-0.5632706,0.4568443-1.0219002,1.0219002-1.0219002S48.7508087,34.9938164,48.7508087,35.5570869 M48.7508087,42.4556999
			c0,0.563076-0.4568443,1.0217018-1.0219002,1.0217018s-1.0219002-0.4586258-1.0219002-1.0217018
			c0-0.5652542,0.4568443-1.0218964,1.0219002-1.0218964S48.7508087,41.8904457,48.7508087,42.4556999 M34.1146202,41.2807922
			l0.4267159,0.3058167h2.8377686l0.5121384-0.2657814v-3.5867538l-0.2826233-0.2828255v3.6388779l-0.6982498-0.3418846
			c-0.4391975-0.2152405-0.8387642-0.3198891-1.2212791-0.3198891c-0.3827171,0-0.7828789,0.1046486-1.2228737,0.3202858
			l-0.3591309,0.175602l-0.3591309-0.1759987c-0.4392052-0.2152405-0.8389664-0.3200874-1.2218781-0.3200874
			c-0.3827171,0-0.7826767,0.104847-1.2220783,0.3200874l-0.698246,0.3418846v-3.6759415l-0.2677631,0.3149338v3.5917091
			l0.5123386,0.2657814h2.8377705L34.1146202,41.2807922z M36.5948448,34.9204826l2.1878853,1.649189
			c0.1474609-1.1659889,0.2879791-2.3163185,0.4189873-3.4097672l-3.1188126-2.3508053
			c0.1579628,1.3110676,0.3286057,2.6940823,0.5079727,4.0806637L36.5948448,34.9204826z M39.6896782,30.8709393
			c-0.26717,2.2836132-0.5422668,4.5650501-0.8363876,6.8445034c1.4452438,0.7091484,3.076004,0.7091484,4.5212479,0
			c-0.2941208-2.2794533-0.5692177-4.5608902-0.8361893-6.8445034C41.589386,30.7333908,40.638443,30.7333908,39.6896782,30.8709393
			 M40.8927269,32.9147377c0-0.1646996,0.0481644-0.3254395,0.1399269-0.460804
			c0.0332985-0.047966,0.047966-0.0709572,0.0812607-0.1189194c0.0313148,0.0479622,0.0479622,0.0709534,0.0812607,0.1189194
			c0.0917664,0.1353645,0.1399269,0.2961044,0.1399269,0.460804v1.1116791c-0.148056,0.0019836-0.294323,0.0019836-0.4423752,0
			V32.9147377z M42.5383492,30.6388512c0.1379471-0.1991882,0.2776756-0.3969879,0.4237442-0.5904274
			c-1.2177162-0.3276176-2.4786415-0.3276176-3.6963577,0c0.145874,0.1936378,0.2859993,0.3912392,0.4239426,0.5904274
			C40.6380463,30.4896088,41.5899811,30.4896088,42.5383492,30.6388512 M41.2247047,29.5561066
			c0.5821037,0.0097103,1.1725273,0.0971165,1.7373886,0.2679615v-1.1219902
			c-0.2104836-0.0806656-0.4215622-0.149044-0.6393814-0.2069149c-0.0733337,0.1409168-0.1456718,0.2826271-0.2172241,0.4247322
			c-0.1452751-0.0267563-0.2917442-0.047369-0.4388046-0.062233c-0.0731316-0.1668797-0.1468658-0.3335629-0.2207909-0.500248
			c-0.222374-0.0114937-0.4417763-0.0114937-0.6639557,0c-0.0739288,0.1666851-0.1476593,0.3333683-0.2209892,0.500248
			c-0.146862,0.014864-0.2933311,0.0354767-0.4386063,0.062233c-0.0713539-0.1421051-0.1438904-0.2838154-0.2172279-0.4247322
			c-0.2180138,0.0578709-0.428894,0.1264496-0.6393776,0.2069149v1.1219902
			C39.901947,29.6320133,40.5692711,29.5450077,41.2247047,29.5561066 M39.3422394,32.0496101l-0.3886642-0.2941208
			l-0.0998878,0.2475433l-0.3632965-0.2739029l-0.1452751-0.4324665l-0.3634911-0.2739067l-0.1452789,0.213459l-0.3632965-0.2737122
			l-0.1454735-0.4326611l-0.3634911-0.2739086l-0.1452789,0.2134609l-0.3632927-0.2739086l-0.1454773-0.4324646
			l-0.3884659-0.2966995c0,0,0.0913696,0.7612724,0.1254616,1.0446911l3.1844177,2.4003563
			C39.2510681,32.746666,39.3422394,32.0496101,39.3422394,32.0496101 M35.5368729,27.8401222
			c0.1379433-0.1991882,0.2780685-0.3969841,0.4239388-0.5904255c-1.2177162-0.3276196-2.4788361-0.3276196-3.6965523,0
			c0.1464691,0.1932411,0.2859955,0.3912373,0.4239426,0.5904255
			C33.6363716,27.6906834,34.5887032,27.6906834,35.5368729,27.8401222 M34.0018463,26.7571793
			c0.6554337-0.0109005,1.3227577,0.0759106,1.9589653,0.2679615v-1.1219883
			c-0.2104836-0.0806637-0.4215622-0.1488457-0.6393776-0.2067184c-0.0733337,0.1409187-0.1458702,0.2824306-0.2172241,0.4245358
			c-0.1452751-0.0265579-0.2915459-0.0473671-0.4388046-0.0622311c-0.0733337-0.1668835-0.146862-0.3335667-0.2207909-0.500248
			c-0.222374-0.0114956-0.4415817-0.0114956-0.6641541,0c-0.0739288,0.1666813-0.1474609,0.3333645-0.2207909,0.500248
			c-0.146862,0.014864-0.2933311,0.0356731-0.4388084,0.0622311c-0.0713501-0.1421051-0.1436882-0.283617-0.2172203-0.4245358
			c-0.2176208,0.0578728-0.4288979,0.1260548-0.6393814,0.2067184v1.1219883
			C32.8293152,26.854496,33.4197426,26.7668915,34.0018463,26.7571793 M32.3078613,29.4663219l-0.3886623,0.2966995
			l-0.1452789,0.4324646l-0.3634911,0.2739086l-0.1452751-0.2134609l-0.3634911,0.2739086l-0.1452789,0.4326611
			l-0.3632946,0.2737122l-0.1454754-0.213459l-0.3632946,0.2739067l-0.1452789,0.4324665l-0.3634911,0.2739029l-0.0998898-0.2475433
			l-0.3886623,0.2941208c0,0,0.0911713,0.6970558,0.1109886,0.8617592l3.1844177-2.4003563
			C32.2162971,30.2275944,32.3078613,29.4663219,32.3078613,29.4663219 M28.5397568,30.6388512
			c0.1381435-0.1991882,0.2780704-0.3967896,0.4239426-0.5904274c-1.2177181-0.3276176-2.478838-0.3276176-3.6963577,0
			c0.1460705,0.1934395,0.285799,0.3912392,0.4239426,0.5904274C26.6394539,30.4896088,27.5915871,30.4896088,28.5397568,30.6388512
			 M27.00453,29.5561066c0.655632-0.0110989,1.3227596,0.0759068,1.9591694,0.2679615v-1.1219902
			c-0.2104855-0.0804653-0.421566-0.149044-0.6393833-0.2069149c-0.0735264,0.1409168-0.1458702,0.2826271-0.2172203,0.4247322
			c-0.1454754-0.0267563-0.2917442-0.047369-0.4388065-0.062233c-0.0733318-0.1668797-0.1468639-0.3335629-0.2207909-0.500248
			c-0.2223759-0.0114937-0.4417801-0.0114937-0.664156,0c-0.0739269,0.1666851-0.1474571,0.3333683-0.220789,0.500248
			c-0.1470623,0.014864-0.2933292,0.0354767-0.4386082,0.062233c-0.0715504-0.1421051-0.1438904-0.2838154-0.2174206-0.4247322
			c-0.2178173,0.0578709-0.4286995,0.1262493-0.639183,0.2069149v1.1219902
			C25.832201,29.653223,26.4226284,29.5658169,27.00453,29.5561066 M25.6900959,30.8709393
			c-0.2669716,2.2836132-0.5400867,4.5650501-0.8361912,6.8445034c1.4472275,0.7091484,3.076004,0.7091484,4.5212479,0
			c-0.2943211-2.2794533-0.5672359-4.5608902-0.8363876-6.8445034
			C27.5919838,30.7333908,26.6388569,30.7333908,25.6900959,30.8709393 M26.893343,32.9147377
			c0-0.1646996,0.0479622-0.3254395,0.1419067-0.460804c0.0311203-0.047966,0.0479641-0.0709572,0.0790806-0.1189194
			c0.0334969,0.0479622,0.0501442,0.0709534,0.081461,0.1189194c0.0917645,0.1353645,0.1417103,0.2961044,0.1417103,0.460804
			v1.1116791c-0.148056,0.0019836-0.2959061,0.0019836-0.4441586,0V32.9147377z M29.4465046,36.5696716l2.1878872-1.649189
			l0.0039635-0.0307198c0.1795654-1.3865814,0.3502121-2.7695961,0.5081749-4.0806637l-3.1188126,2.3508053
			C29.1587238,34.2533531,29.2990456,35.4036827,29.4465046,36.5696716 M33.8545837,40.5306206l0.111187,0.054306v-3.9565887
			c-0.5166931-0.2572594-0.9771042-0.3779602-1.4400902-0.3779602c-0.4950943,0-0.9870186,0.1377449-1.548111,0.4336548
			l-0.1294212,0.0683746v3.9490585l0.3490238-0.170845c0.4734879-0.23209,0.9083309-0.3448601,1.3289051-0.3448601
			C32.9466476,40.1857605,33.3814888,40.2985306,33.8545837,40.5306206 M35.6882935,36.2503777
			c-0.4615974,0-0.9204216,0.119709-1.4349365,0.3755798v3.9567871l0.1062317-0.0519257
			c0.4740829-0.2320862,0.9089279-0.3448601,1.3295021-0.3448601c0.4203682,0,0.8548164,0.1125717,1.3279114,0.3446617
			l0.3490257,0.170845v-3.9492531l-0.1292267-0.0681801C36.6755104,36.3881226,36.1831894,36.2503777,35.6882935,36.2503777
			 M34.1130295,32.8001785c0.3317833,0.2001762,0.5985565,0.4774551,0.7842636,0.8048744
			c0.1835327,0.3252411,0.2856026,0.6964607,0.2856026,1.0843315v0.344265
			c0.127243,0.0957298,0.1773834,0.1333885,0.3066101,0.2293129c0.3024483-0.0895844,0.5965691-0.2043381,0.8843498-0.3462448
			c-0.2963028-2.2792587-0.569416-4.5628738-0.8361893-6.8443089c-0.9491615-0.1377449-1.9001083-0.1377449-2.8488693,0
			c-0.2691498,2.281435-0.5422668,4.5650501-0.8361931,6.8443089c0.2877846,0.1419067,0.5795288,0.2566605,0.8841553,0.3462448
			c0.1272392-0.0959244,0.1793671-0.1335831,0.3064117-0.2293129v-0.344265
			C33.0431709,33.9158249,33.4498672,33.1983566,34.1130295,32.8001785 M34.3342209,31.2276897
			c-0.148056,0.0019836-0.2961044,0.0019836-0.4419785,0V30.116209c0-0.1648998,0.0477638-0.3276176,0.1395302-0.4608078
			c0.0313148-0.0479622,0.0481606-0.0711517,0.0812569-0.1191158c0.0313187,0.0479641,0.0481644,0.0711536,0.0812645,0.1191158
			c0.0919609,0.1331902,0.1399269,0.295908,0.1399269,0.4608078V31.2276897z"/>
		<path class="st2" d="M61.8094521,41.2910004c-0.0231895,0.1171341-0.0816612,0.2055283-0.1752052,0.2649879
			c-0.0937538,0.0596581-0.1972122,0.0780907-0.3107758,0.0556946c-0.1173286-0.0233879-0.206913-0.0800705-0.2689514-0.1704483
			c-0.062233-0.0901794-0.0816536-0.1938362-0.0582733-0.3111687c0.0229988-0.1171341,0.080471-0.205925,0.1722374-0.265583
			c0.0919609-0.0598564,0.1964111-0.078289,0.3135452-0.0550957c0.1137657,0.0225906,0.2023582,0.079277,0.2661743,0.1696548
			C61.8122215,41.0696182,61.832634,41.1736679,61.8094521,41.2910004 M58.2534142,46.8073921l0.3097839-0.7325325
			c0.077095-0.1823387,0.1884804-0.3014565,0.3337593-0.3573456c0.1454735-0.0562897,0.2937279-0.0523262,0.4451485,0.0118904
			c0.1684685,0.0713501,0.2784653,0.1775856,0.3301926,0.3190956c0.0517349,0.1415138,0.0388489,0.3034401-0.03825,0.4855804
			l-0.3079948,0.7273788L58.2534142,46.8073921z M61.9355011,46.729702l0.3165169-0.7477951l-2.0741234,0.6175804
			c0.0652084-0.1870995,0.0945435-0.3678551,0.0836411-0.5418701c-0.013279-0.2083054-0.0772934-0.3924294-0.1920509-0.5525703
			c-0.1147537-0.1599426-0.2768822-0.284214-0.4867706-0.3732033c-0.1991882-0.0844307-0.3971825-0.1125755-0.5937958-0.084034
			c-0.1966057,0.0283394-0.37677,0.109005-0.5406761,0.2423935c-0.1637077,0.1333847-0.2937279,0.3135452-0.3898506,0.5402832
			l-0.572197,1.3514977l3.6109352,1.5284882l0.2511139-0.5930023l-1.5320511-0.6486969l0.0646095-0.1528091L61.9355011,46.729702z
			 M58.9978409,52.4561806c-0.1639061,0.2453651-0.3670578,0.4283028-0.6094551,0.549202
			c-0.2425919,0.1208992-0.498661,0.1732216-0.7684021,0.1567726c-0.2697449-0.0162544-0.5272026-0.1064301-0.7725716-0.27034
			l-2.0210037-1.3509064l0.3579407-0.5355225l2.0164452,1.3479309c0.1581612,0.1056366,0.3179054,0.1643028,0.4790421,0.1750069
			c0.1609344,0.011097,0.3117638-0.0194244,0.4520874-0.0917625c0.1403198-0.0723457,0.2584457-0.179966,0.353775-0.3228645
			c0.0975151-0.145874,0.1518211-0.2957077,0.1629219-0.4501038c0.011097-0.1541939-0.0200195-0.3030396-0.0927582-0.4461365
			c-0.0729332-0.1429024-0.1866989-0.2661781-0.342083-0.3702316l-2.0210114-1.350708l0.3579407-0.5353279l2.0255661,1.353878
			c0.245369,0.1637115,0.4269142,0.3660698,0.5446472,0.6064796c0.1177254,0.2404137,0.1682663,0.4941025,0.1512222,0.7612724
			C59.2552948,51.9499893,59.1639252,52.20784,58.9978409,52.4561806 M56.3281403,55.8913155l-2.7301521-2.8141861
			l-0.321476,0.3119621l0.6358147,2.7872314l-2.7666206-0.7202454l-0.3216705,0.3119621l2.7301483,2.8141861l0.4621964-0.4485207
			l-1.7482872-1.8021965l1.9817619,0.5145187l0.3216705-0.3119621l-0.4540634-1.9966278l1.7482834,1.8023987L56.3281403,55.8913155z
			 M50.8071899,60.5883675l-2.2229691-3.229805l0.530571-0.365078l2.2229691,3.2296066L50.8071899,60.5883675z
			 M47.1833687,62.7389946c-0.2653809,0.1290245-0.5331459,0.1845207-0.8034859,0.166481
			c-0.27034-0.0182304-0.5178871-0.1020699-0.7424393-0.2525024c-0.2245598-0.150032-0.4013519-0.3579407-0.5303764-0.623127
			l-1.0631218-2.1863022l0.5791283-0.2818336l1.0607452,2.1811485c0.0832405,0.1712418,0.1916542,0.3024483,0.3250427,0.393219
			c0.1333847,0.0907784,0.2790604,0.1403236,0.436821,0.1488495c0.1575699,0.0083199,0.3137474-0.0249748,0.468338-0.10009
			c0.1577682-0.0767021,0.2804489-0.1789742,0.3678551-0.3064156c0.0874023-0.127636,0.1357613-0.2717209,0.1450768-0.4318695
			c0.0093155-0.1603355-0.0269547-0.3242455-0.1086121-0.4923172l-1.0631218-2.1861038l0.5793266-0.2818336l1.065506,2.1912575
			c0.1290245,0.2653809,0.1837234,0.531559,0.1641006,0.7985306c-0.019619,0.2667732-0.104248,0.5115471-0.2536888,0.7337227
			S47.4519272,62.608181,47.1833687,62.7389946 M41.8699303,63.9071617
			c-0.1645012,0.1648979-0.3751869,0.2796516-0.6320457,0.3448601c-0.1884842,0.0473709-0.37043,0.058075-0.5468216,0.0311203
			c-0.1762009-0.0263672-0.3363419-0.0850296-0.480629-0.1756058c-0.1442833-0.0907745-0.2693481-0.2122688-0.3753815-0.3646812
			c-0.1058388-0.1520157-0.184124-0.3276176-0.2344666-0.5270042c-0.0677834-0.2677612-0.0721436-0.5170937-0.0130806-0.7477913
			c0.0592575-0.2307014,0.1712379-0.4275093,0.3359413-0.5904274c0.1646996-0.1631165,0.3739967-0.2764816,0.627491-0.3406982
			c0.1916542-0.0487556,0.374588-0.0600548,0.5486031-0.0348816c0.1740189,0.0253677,0.3341599,0.0838356,0.4806252,0.1757965
			c0.1466675,0.0921631,0.2723236,0.2124672,0.3775635,0.3609161c0.1048508,0.149044,0.1825409,0.3228607,0.2330818,0.5218506
			c0.0677834,0.268158,0.0723419,0.5180817,0.0134773,0.7505684c-0.002182,0.0093155-0.0061455,0.0178375-0.008522,0.027153
			l-0.8492737-0.5061913l-0.3000641,0.503418l0.8696823,0.5184784
			C41.9004517,63.8714828,41.8865814,63.8903122,41.8699303,63.9071617 M43.4897881,64.1097183l-0.7412529-0.4419785
			c0.0594597-0.1468658,0.1034584-0.3006668,0.1280327-0.4631844c0.0396385-0.2620163,0.0249748-0.5291824-0.0438004-0.8007126
			c-0.0685768-0.271328-0.1827354-0.5131302-0.3422852-0.7250023c-0.1595459-0.2120705-0.3508072-0.3850937-0.5733833-0.5192757
			c-0.2227707-0.1345749-0.4635773-0.2217789-0.7220268-0.2624092c-0.2588425-0.040432-0.5238304-0.0263596-0.7953606,0.0424118
			c-0.2715302,0.0687752-0.5113449,0.1825409-0.7196465,0.3408966c-0.2083092,0.1587601-0.3775673,0.3498192-0.507782,0.5733833
			c-0.1304131,0.2237625-0.2154388,0.4657631-0.2554741,0.7261925c-0.0400352,0.2606277-0.0257645,0.5266075,0.0430107,0.7979355
			c0.0687714,0.2717285,0.1827354,0.5133286,0.3424797,0.7254028c0.1593513,0.2118683,0.3506088,0.3848953,0.573185,0.5192719
			c0.2227745,0.1341782,0.4645691,0.222374,0.7255936,0.2639923c0.2610245,0.0420227,0.5272026,0.0285416,0.7987289-0.0400314
			c0.2677689-0.0679779,0.5057983-0.1821442,0.7135086-0.3424835c0.1276398-0.0985031,0.2388268-0.2098923,0.3373299-0.3313828
			l0.7388725,0.4405899L43.4897881,64.1097183z M37.1072807,65.5710144l-0.0303268-0.5872574l-1.9914742,0.1034622
			l-0.0584679-1.1299171l1.8012047-0.0935478l-0.0293312-0.5648575l-1.8012047,0.0933495l-0.054306-1.0458794l1.9633293-0.1018753
			l-0.0305214-0.5876503l-2.606678,0.1353683l0.2031517,3.9155617L37.1072807,65.5710144z M30.5497627,65.5232468
			c-0.3078003-0.0368576-0.5624809-0.1234741-0.764246-0.2606201c-0.2017632-0.1369553-0.3749866-0.3230591-0.5198689-0.5585175
			l0.4857807-0.3821259c0.0887909,0.168663,0.2021599,0.3054199,0.3401051,0.4104691
			c0.1379433,0.1048431,0.3216724,0.170845,0.5515766,0.1983871c0.2152424,0.0257721,0.3918362,0.0017853,0.5305729-0.0719376
			c0.1385403-0.0737305,0.2172241-0.1882858,0.2356567-0.3440704c0.0154572-0.1300201-0.0051537-0.2394257-0.0620365-0.3292084
			c-0.0570812-0.089386-0.1371517-0.1676712-0.240015-0.2346611c-0.1028652-0.0663948-0.2176208-0.1292229-0.3442669-0.1876907
			c-0.1264496-0.0580711-0.252306-0.1220894-0.3775635-0.1918564c-0.1252594-0.0693703-0.2376366-0.1514206-0.3371315-0.2461586
			c-0.0996933-0.0945396-0.1752052-0.2106819-0.2263393-0.348629c-0.0511379-0.1377449-0.0648136-0.3066063-0.0408306-0.5067863
			c0.0273514-0.229908,0.1072235-0.4187889,0.2398186-0.5666428c0.1321945-0.1476555,0.3000679-0.2524986,0.5030212-0.31493
			c0.2029533-0.0622368,0.4231491-0.0790825,0.6603889-0.0507431c0.2558708,0.0307236,0.4788418,0.1080208,0.6689129,0.2322884
			c0.1900673,0.1242676,0.3387146,0.2717285,0.4463348,0.4427681l-0.4857769,0.3817253
			c-0.0961227-0.1391335-0.2007713-0.2467537-0.3139439-0.322464c-0.1131687-0.0755119-0.2477455-0.1226807-0.403326-0.1411133
			c-0.1928463-0.0231895-0.3486271-0.0023804-0.4673481,0.0624313c-0.1187191,0.0648079-0.1863041,0.1676712-0.2031517,0.3083916
			c-0.0142689,0.1189194,0.0077305,0.2184105,0.0658016,0.2986794c0.0580711,0.0802727,0.1387386,0.1518211,0.2421951,0.2150459
			c0.1034584,0.0630264,0.218214,0.1248627,0.3444653,0.185112c0.1262512,0.0602531,0.2519073,0.1258583,0.3769684,0.1972084
			c0.1248646,0.0715485,0.236845,0.1573677,0.3359432,0.2574577c0.0988998,0.1002846,0.1736183,0.2229691,0.2237644,0.3680458
			c0.0505409,0.1452789,0.0632248,0.3216705,0.0382538,0.5291901c-0.0416222,0.3484268-0.1978016,0.6100464-0.4687366,0.7844543
			C31.3138065,65.5113602,30.9687481,65.5733948,30.5497627,65.5232468 M25.1130447,60.1907845l-2.3359394,1.648201
			l-0.3862858-2.8324242l-0.4108601-0.178772l-1.5641632,3.5954781l0.5906239,0.2568588l1.0016842-2.3024406l0.2782669,2.0285378
			l0.4106636,0.1787682L24.3708,61.405529l-1.0016823,2.3024445l0.5908222,0.2570572l1.5639648-3.5954742L25.1130447,60.1907845z
			 M20.029314,58.3437958l0.3371315-0.4818153l-2.1381397-1.4967766l-2.2485342,3.2117691l2.1609335,1.5130272l0.337328-0.4818153
			l-1.6333332-1.143589l0.6488934-0.9267654l1.477354,1.0341873l0.3244476-0.4631844l-1.477356-1.034584l0.6007347-0.8579941
			L20.029314,58.3437958z M12.9618387,56.9766388c-0.1983938-0.202755-0.3450594-0.4259262-0.4401932-0.6701012
			c-0.0951338-0.2439804-0.1391335-0.4944992-0.1323948-0.7519569c0.0067387-0.2572594,0.0634222-0.5063934,0.1704483-0.7468033
			c0.1068277-0.2404099,0.2604303-0.4586258,0.4606066-0.6544456c0.2001791-0.195816,0.4215631-0.3446617,0.6643543-0.4465332
			c0.2425919-0.1014786,0.4921198-0.1522141,0.7481899-0.1520157s0.5057964,0.0497475,0.7491827,0.1486473
			c0.2429876,0.0990982,0.4637775,0.2499237,0.6623697,0.452877c0.221981,0.226738,0.3763752,0.4596176,0.4637794,0.698246
			c0.0872078,0.2386284,0.1294231,0.4845886,0.1266479,0.7380791l-0.6177778-0.0067368
			c0.0097122-0.1716385-0.0182333-0.3414917-0.0836382-0.509758c-0.0656033-0.1684685-0.1754045-0.3313866-0.3294029-0.4889526
			c-0.1359615-0.1387367-0.2838163-0.2419968-0.4441566-0.3097801s-0.3264303-0.0998917-0.4980669-0.0965233
			c-0.1716375,0.0035706-0.3410959,0.042614-0.5083742,0.1173325c-0.167078,0.0747223-0.324049,0.1839294-0.4709139,0.3276215
			c-0.1466646,0.1434937-0.2594376,0.2982826-0.3377247,0.4635773c-0.0782881,0.1656952-0.1210976,0.3339615-0.1282339,0.5056
			c-0.0071354,0.1714401,0.0214062,0.3381233,0.0856209,0.5000496c0.0642147,0.1617279,0.1643047,0.3121567,0.3000689,0.4506989
			c0.1672783,0.1710434,0.3349524,0.2901573,0.5032206,0.358139c0.1682682,0.0677834,0.3381224,0.0987015,0.5099583,0.092556
			l-0.0067387,0.6179771c-0.2562675-0.0001984-0.5063906-0.0505409-0.7509651-0.1508255
			C13.4133291,57.363121,13.181242,57.2011948,12.9618387,56.9766388 M9.1299143,52.2607613
			c-0.1621237-0.2465591-0.2515097-0.5050049-0.268158-0.7755432c-0.017046-0.27034,0.0346842-0.5266075,0.1547909-0.7686043
			c0.1203041-0.2421951,0.3036366-0.4439583,0.5501919-0.6062813l2.0317087-1.3346519l0.3537798,0.5382996l-2.0269518,1.3318787
			c-0.1593494,0.1046448-0.2752943,0.2287178-0.3482304,0.3728065s-0.1036568,0.2945175-0.0915661,0.4520836
			c0.0118914,0.1575661,0.0650082,0.308197,0.1593494,0.4516907c0.096323,0.1466637,0.2134571,0.2552757,0.3512039,0.3254356
			c0.1377459,0.0703621,0.2867889,0.0996933,0.4467335,0.0885963c0.1601429-0.0114975,0.3183031-0.0683784,0.4742832-0.170845
			l2.0315094-1.3350525l0.3539791,0.5385017l-2.0364647,1.337822c-0.2465563,0.1619263-0.503418,0.2503242-0.7707844,0.2651863
			c-0.2673674,0.0146675-0.5206623-0.0376549-0.7600832-0.1573677C9.4955864,52.6950073,9.2938232,52.5102882,9.1299143,52.2607613
			 M10.0990944,45.6251526l-0.2548809-0.5916138l-3.6006284,1.5520706l0.9866199,2.2889709l0.5400848-0.2326851
			l-0.7315421-1.6975479L10.0990944,45.6251526z M6.4340515,41.3001175
			c-0.0231891-0.1175308-0.0027747-0.2211838,0.0610447-0.3121567c0.0640173-0.0907745,0.1528087-0.1470642,0.2663755-0.1694565
			c0.1171336-0.0231895,0.2217813-0.0049591,0.3135457,0.0550995c0.0917649,0.0598488,0.1492419,0.1482468,0.1722326,0.2655792
			c0.0231886,0.1171341,0.0037656,0.2209892-0.05827,0.311367C7.126945,41.5407295,7.0371623,41.5976105,6.9200282,41.6208
			c-0.1135669,0.0223961-0.2172232,0.0037651-0.3107715-0.0556908C6.5157084,41.5054474,6.4572406,41.4170532,6.4340515,41.3001175
			 M63.2642097,35.3484879c-0.1082191,0.1121788-0.2443733,0.1710434-0.4084816,0.1767921
			c-0.1829376,0.0065384-0.3276215-0.0436058-0.4340515-0.1500359c-0.1066284-0.1066284-0.1633148-0.2586479-0.1702499-0.4564476
			l-0.0275536-0.7894135l1.164402-0.0408287l0.0277519,0.795166C63.422966,35.0813179,63.3724251,35.2365074,63.2642097,35.3484879
			 M63.9253922,33.4253922l-3.9183426,0.1373482l0.0223999,0.6435432l1.6626663-0.0582695l0.0057487,0.1660881l-1.6154976,1.3980751
			l0.0283432,0.8116112l1.6200562-1.4349403c0.0198174,0.19701,0.0693665,0.3734016,0.1528091,0.5266113
			c0.0998917,0.1833267,0.2356529,0.3230553,0.407093,0.4201736c0.1714439,0.0965233,0.3710251,0.1409187,0.5987473,0.132988
			c0.2164345-0.0073318,0.407692-0.0657997,0.5739822-0.1742134c0.1660843-0.1086082,0.295311-0.2578506,0.3876724-0.4479218
			c0.0923576-0.1902695,0.1343727-0.4082832,0.1256561-0.6544456L63.9253922,33.4253922z M59.928566,29.6162586l1.1055374-0.2412052
			l0.384304,1.7621632l0.5527687-0.1207027l-0.3845024-1.7621593l1.0234871-0.2231712l0.4189873,1.9209175l0.5747681-0.1252613
			l-0.5565376-2.5503864l-3.8307266,0.8357925l0.5622749,2.5775414l0.5747757-0.1252613L59.928566,29.6162586z
			 M61.7929993,26.1250343l0.543457-0.2247543l-1.2222824-2.9556999l-0.5434494,0.2247543l0.487957,1.1802578l-3.0797653,1.2736073
			l0.2461586,0.5951843l3.0797653-1.2736073L61.7929993,26.1250343z M57.1885071,20.5319405l0.9624405,1.5255127
			l0.4784431-0.3018513l-0.9624367-1.5255165l0.8859367-0.5589123l1.0490532,1.6626663l0.497467-0.3137417l-1.3929176-2.2073097
			l-3.3158264,2.091959l1.4075966,2.2312908l0.4972725-0.313942L56.231617,21.135643L57.1885071,20.5319405z M56.7419739,16.2822189
			l-1.7457123,0.2572594l0.3724098-1.7415466l-0.5172882-0.5591145l-0.4756775,2.2976856l-2.4479179,0.3159294l0.4907303,0.530571
			l1.926075-0.2588444l-0.4538727,1.8497601l0.5097618,0.5509853l0.5622826-2.3955975l2.2699394-0.3165169L56.7419739,16.2822189z
			 M51.5926361,14.3280077l0.336937-0.4546633l-1.4494095-1.0736265l0.6237221-0.8417406l1.5796242,1.1705475l0.3500175-0.4725008
			l-2.0971146-1.5540562l-2.334156,3.1505251l2.119709,1.570508l0.3502083-0.4726992l-1.6022148-1.1869993l0.6734734-0.9091215
			L51.5926361,14.3280077z M46.3616486,9.1879854l0.2203941-0.5452394l-2.347435-0.9481692l-1.4684334,3.6355147
			l0.5973625,0.2414007l0.6292725-1.558218l1.6618729,0.6712894l0.2203941-0.5452337l-1.6620712-0.6714878l0.398571-0.9866257
			L46.3616486,9.1879854z M39.1570206,9.7954569c0.2602348,0.0505409,0.4998512,0.0364666,0.7188606-0.0428114
			C40.0946884,9.673768,40.2803993,9.5413733,40.432415,9.35606c0.1520157-0.1853189,0.2544823-0.4136362,0.3074036-0.6849709
			c0.0392418-0.2013655,0.0428085-0.3918314,0.0112953-0.5711985c-0.0317116-0.1793675-0.0943413-0.3416901-0.1876945-0.4873676
			c-0.0933495-0.1454716-0.2132568-0.2669668-0.3599205-0.3640871c-0.1466675-0.0969148-0.317112-0.1641011-0.5113487-0.2019582
			c-0.2564621-0.0499482-0.4941025-0.036273-0.7127113,0.0408268c-0.2186089,0.0774932-0.4037247,0.2079101-0.5553436,0.391439
			C38.272274,7.662272,38.1700058,7.8896036,38.1172867,8.160738c-0.0392456,0.2015648-0.0434036,0.393816-0.0124893,0.5769453
			c0.0309219,0.1827364,0.0923615,0.3460503,0.1843262,0.4893446c0.0919609,0.1435003,0.2118683,0.2647963,0.3599205,0.3638945
			C38.7971001,9.6904135,38.9663582,9.7581987,39.1570206,9.7954569 M39.0503922,10.4023361
			c-0.2748985-0.0535173-0.5214539-0.1547928-0.7396698-0.3036394c-0.2184067-0.1490402-0.3997612-0.3317766-0.5438461-0.5482082
			c-0.1444855-0.2164326-0.2435837-0.454464-0.2976952-0.7141008c-0.0541039-0.2596359-0.0543022-0.5272017-0.0007896-0.8019056
			c0.0535126-0.2748961,0.153801-0.5216494,0.3010597-0.7402592c0.1470604-0.2186098,0.3272209-0.4013462,0.5402832-0.5484085
			c0.2130623-0.1466632,0.4477234-0.2475452,0.7035942-0.3022475c0.2562675-0.0547028,0.5216522-0.0554948,0.7965546-0.0017843
			c0.2748947,0.0533109,0.5208549,0.1536007,0.737484,0.3004632c0.2168274,0.146863,0.3973846,0.3282142,0.5416718,0.5446405
			c0.1442871,0.2164321,0.2433853,0.4546628,0.2976913,0.7141056c0.0539093,0.2596369,0.0541039,0.5270033,0.0007896,0.8018999
			c-0.0537109,0.2748966-0.1539955,0.5226421-0.3016548,0.7430353c-0.1476555,0.2203941-0.3276176,0.4033298-0.5402832,0.5482149
			c-0.2128601,0.1450787-0.4473228,0.2459612-0.7037926,0.3024473C39.5855217,10.45327,39.3217201,10.4552536,39.0503922,10.4023361
			 M33.7726288,5.8971362L33.0406914,5.948669l-0.904171,1.6709914l-1.1297188-1.5276971l-0.7430382,0.0523252l1.5917149,2.1080108
			l0.1199074,1.7019119l0.6425533-0.045188l-0.1216927-1.7266865L33.7726288,5.8971362z M28.8456707,6.97017l-0.1377449-0.5717916
			l-3.1093006,0.7493749l0.1379433,0.5717978l1.2415028-0.2992783l0.7808895,3.2399149l0.6263008-0.1508245l-0.7810898-3.2399149
			L28.8456707,6.97017z M24.4768353,11.7322302L23.0605259,8.076108l0.6007328-0.2326846l1.416111,3.6561227L24.4768353,11.7322302z
			 M21.4160919,13.2627039c-0.2705364,0.1514168-0.5275974,0.2310934-0.7711811,0.2392225
			c-0.2437801,0.0081234-0.4935074-0.0406332-0.7491798-0.1456776l0.1678715-0.5945883
			c0.1710434,0.0840378,0.3432751,0.1278343,0.5164986,0.131403c0.173027,0.0035686,0.3607178-0.0511332,0.5626793-0.1643
			c0.1888809-0.1056433,0.3179054-0.2293158,0.3864822-0.3704329c0.0685749-0.1413097,0.0646114-0.2800493-0.0120907-0.4170055
			c-0.063818-0.1139584-0.1450787-0.1904659-0.243782-0.2293091c-0.0988998-0.0386496-0.2096901-0.0549021-0.3321743-0.0483637
			c-0.1224861,0.0065451-0.2523041,0.0233898-0.3888607,0.0507412c-0.1365585,0.0273504-0.2758904,0.0497484-0.4179955,0.0671864
			c-0.142107,0.017643-0.2814388,0.0174437-0.4176006-0.0005932c-0.1361599-0.0176373-0.2655811-0.0673857-0.3880672-0.1486473
			c-0.1224842-0.080862-0.2330799-0.2094946-0.3315811-0.3856926c-0.1129723-0.2017584-0.1595497-0.4015388-0.1395321-0.5989428
			s0.0937481-0.3807392,0.2211876-0.5507917c0.1274414-0.1696529,0.2955112-0.3131475,0.5040112-0.4296894
			c0.2247562-0.12605,0.4506989-0.1946268,0.6774368-0.2059259c0.2267361-0.0116911,0.4338493,0.0202208,0.6213436,0.0949373
			l-0.1678715,0.5945883c-0.1595478-0.0558882-0.3076-0.0812616-0.4435635-0.0757084
			c-0.1359615,0.0055456-0.2723217,0.046772-0.4092751,0.1230803c-0.1694565,0.0949364-0.2830238,0.2035427-0.3408966,0.3258305
			c-0.0576744,0.1220884-0.0519276,0.2451687,0.0174408,0.3690414c0.0582695,0.1042509,0.1345749,0.1716366,0.2289162,0.2023573
			c0.0941429,0.0307255,0.2015648,0.0412264,0.3222675,0.0313187c0.1207008-0.0097141,0.2499256-0.0275507,0.3874741-0.0531178
			c0.1375465-0.0257664,0.2778702-0.0465727,0.4209671-0.0624323c0.1429005-0.0158529,0.2840157-0.0124836,0.4229507,0.0103064
			c0.1389351,0.0227909,0.2715282,0.0780926,0.3977795,0.1656923c0.1260529,0.0877991,0.2402134,0.2227707,0.3424835,0.4053135
			c0.1714382,0.3062096,0.1989899,0.6096487,0.0826473,0.9101124
			C22.0265369,12.8032799,21.7843399,13.0565777,21.4160919,13.2627039 M15.0767908,13.5280857l0.6169834-0.5018349
			c0.1536016-0.1248579,0.3075991-0.1781759,0.4623919-0.1595459c0.1545925,0.0186291,0.2838173,0.091567,0.3874722,0.2190084
			c0.1155491,0.1421022,0.1629181,0.2875805,0.1423054,0.4364271c-0.0206108,0.1494398-0.1078186,0.2863951-0.2614212,0.411253
			L15.8120975,14.43186L15.0767908,13.5280857z M18.3664494,15.1840172l0.630064-0.5123415l-2.1218853-0.4257212
			c0.1450768-0.1345787,0.2558708-0.2806492,0.3276176-0.4396029c0.0858192-0.1902666,0.1157455-0.3829165,0.0891876-0.5781364
			c-0.0263615-0.1950264-0.1113853-0.3809319-0.2550793-0.5579224c-0.136755-0.1678696-0.2984829-0.2852039-0.4853821-0.3521967
			c-0.1868992-0.0671864-0.3841038-0.0800695-0.5912189-0.0390425c-0.2073126,0.0410271-0.4066973,0.1393328-0.5977592,0.2949171
			l-1.1382399,0.9261713l2.4742804,3.0413198l0.4996529-0.4063053l-1.0498447-1.290453l0.1288261-0.1048498L18.3664494,15.1840172z
			 M15.2006626,18.0035515l-0.449708-0.3789482l-1.2849054,1.5247173l-0.8651257-0.7287636l1.1620235-1.3794441l-0.432662-0.3644867
			l-1.1620235,1.3792515l-0.8011084-0.6748581l1.2666712-1.5035162l-0.4495087-0.3789539l-1.6818924,1.9960356l2.998311,2.5264053
			L15.2006626,18.0035515z M9.2962017,19.1152325l-0.3486271,0.5943909l1.8979263,2.4183884l-3.0320048-0.4861755
			l-0.354176,0.6039028l4.1837225,0.6171856l0.2269335-0.3864841L9.2962017,19.1152325z M10.0527163,26.1371231
			l-3.6196556-1.5066853l0.2473488-0.5945873l3.619854,1.5066833L10.0527163,26.1371231z M9.2991743,28.1200771
			l-3.8081398-0.9333057l-0.1532059,0.6255074l2.6276836,0.6441383l-3.121192,1.3687401l-0.1066294,0.4350414l3.8081398,0.9335022
			l0.1532059-0.6257038l-2.627882-0.6439381l3.121192-1.3689404L9.2991743,28.1200771z M8.260231,34.6133766
			c-0.0140724,0.2947197-0.0935488,0.5563393-0.2388268,0.7850571c-0.1454763,0.2285194-0.337925,0.4055061-0.5775442,0.5305672
			c-0.2394209,0.1254616-0.5065889,0.1807556-0.8011084,0.1668854l-2.4282985-0.1143608l0.030324-0.6437378l2.422749,0.1145515
			c0.1900697,0.0089188,0.3571496-0.0233841,0.5006433-0.0971107c0.143693-0.0735321,0.2570605-0.1773872,0.3399067-0.3119621
			c0.0830436-0.1343765,0.1286297-0.2871895,0.136755-0.4590225c0.0083241-0.1752052-0.022594-0.3317833-0.0929537-0.4697266
			c-0.0699635-0.1377449-0.1732235-0.2493286-0.3093843-0.334156c-0.1361609-0.0850258-0.297492-0.1318016-0.483995-0.1407204
			l-2.4282985-0.1145592l0.030324-0.6433449l2.4338484,0.1149559c0.2947178,0.0136757,0.5543542,0.0931511,0.7795053,0.23843
			c0.2249522,0.1452751,0.3989687,0.3365364,0.5224447,0.574173C8.2195997,34.0471306,8.2743025,34.3148918,8.260231,34.6133766"/>
	</g>
	<path class="st2" d="M116.8370361,16.9288483c0-0.8621349,0.6990128-1.5611515,1.5611496-1.5611515
		c0.8621597,0,1.5611725,0.6990166,1.5611725,1.5611515s-0.6990128,1.5611744-1.5611725,1.5611744
		C117.5360489,18.4900227,116.8370361,17.7909832,116.8370361,16.9288483z M82.9575653,17.2236156v9.6961708
		c0,4.7792969,2.677887,7.3969975,7.4332275,7.3969975c4.8273849,0,7.51754-2.6058311,7.51754-7.5050774v-9.5740318
		c0-0.9908047,0.485611-1.9188833,1.2998505-2.4834709l0.6912842-0.4794807h-5.7299118l0.7853317,0.4925337
		c0.8811417,0.5529366,1.4162521,1.5199785,1.4162521,2.5604982v8.9674568c0,2.0774479,0,6.5805702-5.2837219,6.5805702
		c-4.8396759,0-5.4519653-3.6142445-5.4519653-6.5805702v-9.0743561c0-0.9815178,0.4765091-1.9018669,1.2780609-2.4684477
		l0.676239-0.477685h-6.592659l0.678627,0.4781008C82.4794693,15.3187914,82.9575653,16.2405205,82.9575653,17.2236156z
		 M117.2454453,24.3108006v6.9260387c0,0.8872757-0.3899918,1.7298126-1.066452,2.3041229l-0.4614563,0.3917656h5.5246353
		l-0.5081711-0.3897934c-0.7457352-0.5719261-1.1830521-1.458416-1.1830521-2.3981686V20.0268211l-3.8456726,1.5130558
		l0.6186371,0.598053C116.9128571,22.7072697,117.2454453,23.4914169,117.2454453,24.3108006z M164.9189606,33.1133423
		c-1.417038,0-3.0565643-1.4968052-3.5703125-2.6640224l-1.6925964,1.9853992
		c0.8474884,1.0737648,3.2616882,1.9178963,4.8822327,1.9178963c3.2640686,0,5.524826-1.5957985,5.524826-4.1828194
		c0-2.1396236-1.2208557-3.0706387-3.2640381-3.8926086l-1.4024048-0.5681572
		c-1.6561737-0.664959-2.8408051-1.3420086-2.8408051-2.6234417c0-1.2816277,0.960907-1.8872147,2.2906494-1.8798771
		c2.228302,0.0120678,3.3452148,2.3401508,3.3452148,2.3401508c0.4830627-0.9256935,0.7043915-1.3283443,1.2679901-2.3747978
		c-1.0224915-0.536293-2.6117706-1.2046261-4.2744751-1.2046261c-2.9938354,0-4.9325104,1.4750385-4.9325104,3.8684521
		c0,2.381916,1.8254547,3.264267,3.5542755,3.9652538l1.4506836,0.5927086
		c1.3538818,0.5556965,2.3271027,1.0998936,2.3271027,2.4298363
		C167.5847931,32.3820686,166.5272522,33.1133423,164.9189606,33.1133423z M123.759697,23.8008347l3.8914032,10.1313019
		c0.0212021,0.0029564,1.7923813,0.0029564,1.813591,0l4.0515594-10.1599922
		c0.2690277-0.6738968,0.6331024-1.301033,1.0759277-1.8648548c0.4442444-0.5651779,0.9686737-1.0638657,1.5611877-1.4839497
		h-4.4219818l0.0091095,0.0106869c0.5939178,0.7932568,0.7419891,1.8359451,0.3913879,2.7624264l-2.5840607,6.8458576
		c-0.1678772,0.4321518-0.2993164,0.8522358-0.4323425,1.2723198c-0.1193848-0.420084-0.2522125-0.840168-0.4200897-1.2723198
		l-2.6400833-6.8367481c-0.1298523-0.3385239-0.1949921-0.6922913-0.1949921-1.0442867
		c0-0.6182442,0.1979675-1.2287598,0.5788498-1.737936h-5.3209305
		C122.3151474,21.2605515,123.2354736,22.4362659,123.759697,23.8008347z M173.9640503,18.4900227
		c0.8621216,0,1.5609436-0.6990395,1.5609436-1.5611744s-0.698822-1.5611515-1.5609436-1.5611515
		c-0.8623657,0-1.5611877,0.6990166-1.5611877,1.5611515S173.1016846,18.4900227,173.9640503,18.4900227z M135.5093536,25.1131458
		c0.8281097-2.9292889,3.6770477-5.0611839,6.6718597-5.0611839c2.9946442,0,5.6329041,2.1318951,6.4608154,5.0611839
		c0.1193848,0.4198875,0.202713,0.8556099,0.2470398,1.3038158h-10.5600739
		c-0.0011902,0.0190086-0.0031586,0.0368156-0.0041504,0.0560226l-0.0031738,0.0568104
		c-0.0033722,0.048708-0.0063477,0.0982056-0.0085144,0.1466942c-0.0019684,0.0526714-0.0043335,0.1055183-0.0053406,0.1591549
		c-0.0009918,0.0496941-0.0009918,0.0991898-0.0009918,0.1486855c0,0.0496941,0,0.0991688,0.0009918,0.1488628
		c0.0010071,0.0485096,0.002182,0.0970211,0.0043488,0.1455097c0.122345,2.913456,1.9325562,5.2573738,4.3354492,5.4525795
		c0.1074982,0.0095024,0.2159882,0.0136642,0.3258667,0.0136642c2.0412292,0,3.7827148-1.5463238,4.4651031-3.7215595h1.2711639
		c-0.7510986,3.059164-3.3418884,5.3143826-6.4230194,5.3143826c-3.6687164,0-7.064209-3.1981487-7.064209-7.1424007
		c0-0.2625046,0.0136414-0.5230408,0.0399933-0.7784061C135.3068542,25.9687557,135.3899994,25.5330334,135.5093536,25.1131458z
		 M138.5315247,25.1131458h7.2435608c-0.5315399-2.1455383-1.6371918-3.7183857-3.338501-3.8765545
		c-0.0938263-0.0095043-0.188858-0.0136662-0.2836914-0.0136662
		C140.3278503,21.2229252,139.0925446,22.8494072,138.5315247,25.1131458z M150.0228424,33.5409622l-0.4616699,0.3917656h5.6960754
		l-0.5671692-0.3951378c-0.8114624-0.5652008-1.2950745-1.4912872-1.2950745-2.4801216v-6.5475216
		c2.4252472-2.3086796,5.3668213-1.4871044,5.3668213-1.4871044v-3.1100616c-4.0184937,0-5.5228271,3.1880512-5.5228271,3.1880512
		l-0.2763672-3.0740108l-3.2741547,1.5130558l0.6279602,0.6996078c0.4976807,0.554491,0.7730408,1.2735043,0.7730408,2.0186653
		v6.9784908C151.0894775,32.124115,150.6994781,32.9666519,150.0228424,33.5409622z M136.8688049,54.232151l-2.8647766-4.1194839
		l2.8342896-3.5103226c0.7383881-0.9146118,1.5811462-1.7397118,2.5108032-2.4591408l0.3586884-0.2812958l-4.8782654-0.0057411
		c0.8413849,0.7178078,0.9801483,1.9654045,0.3181458,2.8514977c-0.634079,0.8486671-1.2693481,1.6945763-1.9002686,2.5402832
		l-1.778717-2.6299667c-0.5794678-0.8565941-0.4476166-2.0079575,0.3105927-2.7115288l0.0540619-0.0502853h-6.0330276
		l0.0977859,0.0690765c1.1280136,0.7962379,2.1057739,1.7862511,2.8881378,2.9239693l2.8881226,4.2000351l-2.8320923,3.6021996
		c-0.7590027,0.9652672-1.6328201,1.8345413-2.6020737,2.5885963l-0.1619339,0.1259079h4.8665924l-0.0136719-0.0104904
		c-0.9138031-0.694088-1.1000824-1.9935226-0.4176941-2.9162369c0.6293335-0.8512497,1.2614441-1.7040977,1.8935394-2.5612869
		l1.9410553,2.8002281c0.5737152,0.8276863,0.4779053,1.9463921-0.2280579,2.6646156l-0.0227814,0.0231705h6.0092926
		l-0.0245819-0.0160294C138.8199463,56.5277557,137.728775,55.4690361,136.8688049,54.232151z M175.1167908,31.1447659V20.0268211
		l-3.8456879,1.5130558l0.618454,0.598053c0.5889435,0.5693398,0.921524,1.353487,0.921524,2.1728706v6.9260387
		c0,0.8872757-0.3897858,1.7298126-1.0662231,2.3041229l-0.4616852,0.3917656h5.5248413l-0.5081787-0.3897934
		C175.5540771,32.9710083,175.1167908,32.0845184,175.1167908,31.1447659z M165.4778442,50.2520485
		c-0.0010071,0.0496941-0.0010071,0.0991669-0.0010071,0.1488609c0,0.0494957,0,0.0989914,0.0010071,0.1486626
		c0.0009766,0.0485115,0.0021667,0.097023,0.0043488,0.1455116c0.1221466,2.9134789,1.9323425,5.2573967,4.3352509,5.4525795
		c0.1076965,0.0095024,0.2161713,0.0136642,0.3258514,0.0136642c2.041214,0,3.7827301-1.5463257,4.4651184-3.7213631h1.2713318
		c-0.7512665,3.0589676-3.3418579,5.3141861-6.4230042,5.3141861c-3.6688995,0-7.0644073-3.1981277-7.0644073-7.1423988
		c0-0.2625084,0.0136566-0.5230217,0.0401764-0.7784081c0.0441589-0.448185,0.1274872-0.8839073,0.2468719-1.3037949
		c0.8281097-2.9293098,3.6770172-5.061203,6.6718292-5.061203c2.9946442,0,5.6329346,2.1318932,6.4608459,5.061203
		c0.1193542,0.4198875,0.202713,0.8556099,0.2468719,1.3037949h-10.5601044
		c-0.0009918,0.0190086-0.0029907,0.0368156-0.0041656,0.0560226l-0.0029755,0.0568123
		c-0.0033569,0.0487061-0.0065308,0.0982018-0.0086975,0.1466904
		C165.4809875,50.1455421,165.4788208,50.198391,165.4778442,50.2520485z M165.7015381,48.5295486h7.243576
		c-0.5315399-2.1455574-1.6371918-3.7184067-3.338501-3.8765755c-0.0938263-0.0095062-0.188858-0.0136642-0.2838898-0.0136642
		C167.4978638,44.6393089,166.2625732,46.2658119,165.7015381,48.5295486z M195.4653015,20.4231415l0.0146637,0.0134697
		c0.8571777,0.7855263,1.16362,2.0077591,0.7770081,3.1043015c-0.7643585,2.1673298-2.6782837,7.6658344-2.8582306,8.3022785
		c-0.1680908-0.6125069-2.9211884-8.1641045-2.9211884-8.1641045c-0.429184-1.1646328-0.0704803-2.4731789,0.8926239-3.2559452
		l-5.1347046-0.018528l-0.0046844-0.0030441h-4.1428223v-4.8319454l-2.3538208,2.0790253v2.7529202h-2.2815399v1.426548h2.2815399
		v9.3786297c0,1.464941,0.7447357,2.9781933,3.218338,2.9781933c1.1287994,0,2.4017181-0.4084091,3.4463654-1.2491684
		l-0.2399139-0.6722984c-2.9542389,0.6845818-4.0709686,0.1922264-4.0709686-1.7894058v-8.6459503h5.1142426l4.55896,12.1046104
		h0.8676605c0,0-1.8105774,4.0026627-4.7274017,4.0026627l1.1210938,1.9753227
		c2.6869659-0.7691002,4.45401-4.7723732,5.9973602-8.8841248l3.1052856-8.2876282
		c0.2480621-0.6620026,0.6475525-1.2569008,1.1666107-1.7371693l0.6255798-0.5786495H195.4653015z M158.2047577,53.9561768
		v-8.621994h3.4648132v-1.4560471h-3.4648132v-4.8264046l-2.3537903,2.0792427v2.7471619h-2.2813721v1.4560471h2.2813721v9.354866
		c0,1.4647446,0.7447357,2.9780006,3.2183075,2.9780006c1.1288147,0,2.4017181-0.4081917,3.4463959-1.2491722l-0.2399445-0.6722755
		C159.3214874,56.4301643,158.2047577,55.9378281,158.2047577,53.9561768z M94.4813385,48.6716881
		c0,4.6953468-3.77005,8.9341888-8.571312,8.9341888c-3.2759399,0-5.0126953-1.7050858-5.0126953-5.2114449
		c0-4.6955452,3.77005-8.9345856,8.5711441-8.9345856C92.7447815,43.4598465,94.4813385,45.1653061,94.4813385,48.6716881z
		 M91.7702103,47.3266983c0-1.8012962-0.5507507-2.8101234-2.3298569-2.7980347
		c-3.3747406,0.0241356-5.8318863,4.8996391-5.8318863,9.210537c0,1.8012962,0.5507507,2.8101273,2.3300552,2.7980576
		C89.3134537,56.5131035,91.7702103,51.6377945,91.7702103,47.3266983z M180.7546692,46.4647598l-0.2763672-3.0742073
		l-3.2741699,1.5132523l0.6279449,0.6994133c0.4977112,0.5546875,0.7730713,1.2737007,0.7730713,2.0188408v6.9785118
		c0,0.8872757-0.3899994,1.7298126-1.0664368,2.3041229l-0.4616547,0.391964h5.6958618l-0.5671692-0.3951378
		c-0.811264-0.5652008-1.2949066-1.4914856-1.2949066-2.4801216v-6.5475235
		c2.4253082-2.308876,5.3666534-1.4871254,5.3666534-1.4871254v-3.1102371
		C182.259201,43.2765121,180.7546692,46.4647598,180.7546692,46.4647598z M98.1245193,42.2017632
		c-0.1082993,0.5402527-0.2042923,1.0804863-0.3124008,1.6322212h-2.5737457v1.3164711l-0.0154419,0.0617599h2.3334274
		l-2.176239,11.4968796c-0.3989105,2.1031837-0.8825302,3.9169426-3.2397156,6.5883026l0.4955063,0.411171
		c2.8893051-1.70467,4.436615-3.5542831,4.9564819-6.2501717l2.3573608-12.2461815l4.0707779-0.0304642v-1.3477669h-3.8047028
		c0.7494965-3.8807182,0.9429092-6.9874077,3.0223465-6.9874077c0.6817856,0,1.9311523,0.4048424,2.8853378,1.0898209
		l0.9282532-1.7238998c-0.43927-0.4404716-1.6735916-0.7805748-2.4716034-0.7805748
		C101.3764954,35.4319229,98.8858871,38.1883926,98.1245193,42.2017632z M109.2167282,33.5421448l-0.4711533,0.390583h5.452774
		l-0.4761047-0.3901901c-0.7007904-0.5740929-1.1070404-1.4320869-1.1070404-2.3379822V24.5541
		c0-2.6541252-0.9607315-4.5272789-4.0586777-4.5272789c-1.6213608,0-3.2064514,0.7203903-4.3233795,2.0893383
		c-0.1025467-0.7263489-0.2759552-2.0893383-0.2759552-2.0893383l-3.533699,1.5130558l0.6610031,0.6647644
		c0.5630264,0.5663834,0.8791733,1.3325043,0.8791733,2.1311054v6.9008942c0,0.8874741-0.3899918,1.730011-1.0666504,2.3043213
		l-0.4614563,0.3917656h5.5248337l-0.4970932-0.3777275c-0.7522812-0.5715065-1.1939316-1.4619598-1.1939316-2.4066639v-7.2233677
		c0.3747482-0.7507019,1.6854782-2.0267906,3.2420807-2.0267906c2.2140656,0,2.7982559,1.0927773,2.7982559,3.0862999v6.2311611
		C110.3097076,32.1152039,109.9090271,32.9678345,109.2167282,33.5421448z M142.5848694,50.2520485
		c-0.0008087,0.0496941-0.0008087,0.0991669-0.0008087,0.1488609c0,0.0494957,0,0.0989914,0.0008087,0.1486626
		c0.0011902,0.0485115,0.0021667,0.097023,0.0043335,0.1455116c0.1223602,2.9134789,1.9325562,5.2573967,4.3354797,5.4525795
		c0.1074829,0.0095024,0.216156,0.0136642,0.3258362,0.0136642c2.0412445,0,3.7827301-1.5463257,4.4651337-3.7213631h1.2711334
		c-0.7510834,3.0589676-3.3416748,5.3141861-6.4229889,5.3141861c-3.6687164,0-7.0642395-3.1981277-7.0642395-7.1423988
		c0-0.2625084,0.0136719-0.5230217,0.0399933-0.7784081c0.044342-0.448185,0.1277008-0.8839073,0.2470703-1.3037949
		c0.8278961-2.9293098,3.677002-5.061203,6.6718445-5.061203c2.9944305,0,5.6327209,2.1318932,6.4608154,5.061203
		c0.1191711,0.4198875,0.2025299,0.8556099,0.2468719,1.3037949h-10.5601044
		c-0.0011749,0.0190086-0.0031738,0.0368156-0.0041656,0.0560226l-0.0031433,0.0568123
		c-0.0031738,0.0487061-0.0063324,0.0982018-0.0085297,0.1466904
		C142.5882263,50.1455421,142.5860596,50.198391,142.5848694,50.2520485z M142.8085632,48.5295486h7.2435608
		c-0.5315399-2.1455574-1.6371613-3.7184067-3.3384857-3.8765755c-0.0938263-0.0095062-0.1886597-0.0136642-0.2836914-0.0136642
		C144.6049194,44.6393089,143.3697815,46.2658119,142.8085632,48.5295486z M118.1073837,56.094223
		c-0.7502899-0.0008087-1.7397156-0.0012054-3.0120544-0.0012054l0.0374069-8.7423592h2.4874573
		c0.9112396,0,1.8196945,0.1017532,2.708374,0.3032875l2.5622711,0.5810356v-2.7772751l-2.6959152,0.5641937
		c-0.825119,0.172821-1.6658783,0.2599449-2.5088043,0.2599449h-2.5907898V38.848423
		c1.4299011,0,2.5280151,0.0027618,3.3258286,0.0059357c1.0961304,0.0041618,2.1762466,0.2575569,3.1603241,0.740387
		l3.0164108,1.4799881l-0.307251-3.3669853h-13.8576126l0.687149,0.4782791
		c0.8124619,0.5655937,1.296669,1.4930611,1.2958832,2.4828796l-0.0097046,13.743969
		c-0.0007858,0.9852867-0.4816437,1.9083939-1.2889404,2.4735947l-0.6843872,0.4794807h14.3020554l0.2403183-3.5142899
		l-3.0722351,1.4130821C120.7124023,55.8123131,119.4181137,56.0954056,118.1073837,56.094223z"/>
</g>
</svg>
